<svg width="17" height="16" viewBox="0 0 17 16" fill="none" xmlns="http://www.w3.org/2000/svg">
<path d="M7.00678 9.49332H1.78011C1.68205 9.49335 1.58495 9.47405 1.49435 9.43654C1.40375 9.39903 1.32142 9.34403 1.25208 9.27469C1.18274 9.20535 1.12775 9.12303 1.09023 9.03242C1.05272 8.94182 1.03342 8.84472 1.03345 8.74666V1.27999C1.03342 1.18193 1.05272 1.08483 1.09023 0.994225C1.12775 0.903623 1.18274 0.821301 1.25208 0.751962C1.32142 0.682622 1.40375 0.627624 1.49435 0.59011C1.58495 0.552595 1.68205 0.5333 1.78011 0.533325H7.00678C7.10484 0.5333 7.20195 0.552595 7.29255 0.59011C7.38315 0.627624 7.46547 0.682622 7.53481 0.751962C7.60415 0.821301 7.65915 0.903623 7.69666 0.994225C7.73418 1.08483 7.75347 1.18193 7.75345 1.27999V8.74666C7.75347 8.84472 7.73418 8.94182 7.69666 9.03242C7.65915 9.12303 7.60415 9.20535 7.53481 9.27469C7.46547 9.34403 7.38315 9.39903 7.29255 9.43654C7.20195 9.47405 7.10484 9.49335 7.00678 9.49332Z" fill="#EE8022"/>
<path d="M7.00678 15.4667H1.78011C1.68205 15.4667 1.58495 15.4474 1.49435 15.4099C1.40375 15.3724 1.32142 15.3174 1.25208 15.2481C1.18274 15.1787 1.12775 15.0964 1.09023 15.0058C1.05272 14.9152 1.03342 14.8181 1.03345 14.72V11.7334C1.03342 11.6353 1.05272 11.5382 1.09023 11.4476C1.12775 11.357 1.18274 11.2747 1.25208 11.2053C1.32142 11.136 1.40375 11.081 1.49435 11.0435C1.58495 11.006 1.68205 10.9867 1.78011 10.9867H7.00678C7.10484 10.9867 7.20195 11.006 7.29255 11.0435C7.38315 11.081 7.46547 11.136 7.53481 11.2053C7.60415 11.2747 7.65915 11.357 7.69666 11.4476C7.73418 11.5382 7.75347 11.6353 7.75345 11.7334V14.72C7.75347 14.8181 7.73418 14.9152 7.69666 15.0058C7.65915 15.0964 7.60415 15.1787 7.53481 15.2481C7.46547 15.3174 7.38315 15.3724 7.29255 15.4099C7.20195 15.4474 7.10484 15.4667 7.00678 15.4667Z" fill="#EE8022"/>
<path d="M15.2202 15.4667H9.99349C9.89543 15.4667 9.79833 15.4474 9.70773 15.4099C9.61712 15.3724 9.5348 15.3174 9.46546 15.248C9.39612 15.1787 9.34113 15.0964 9.30361 15.0058C9.2661 14.9152 9.2468 14.8181 9.24683 14.72V8.74667C9.2468 8.64861 9.2661 8.5515 9.30361 8.4609C9.34113 8.3703 9.39612 8.28798 9.46546 8.21864C9.5348 8.1493 9.61712 8.0943 9.70773 8.05678C9.79833 8.01927 9.89543 7.99997 9.99349 8H15.2202C15.3182 7.99997 15.4153 8.01927 15.5059 8.05678C15.5965 8.0943 15.6789 8.1493 15.7482 8.21864C15.8175 8.28798 15.8725 8.3703 15.91 8.4609C15.9476 8.5515 15.9669 8.64861 15.9668 8.74667V14.72C15.9669 14.8181 15.9476 14.9152 15.91 15.0058C15.8725 15.0964 15.8175 15.1787 15.7482 15.248C15.6789 15.3174 15.5965 15.3724 15.5059 15.4099C15.4153 15.4474 15.3182 15.4667 15.2202 15.4667Z" fill="#CFD8DC"/>
<path d="M15.2202 6.50666H9.99349C9.89543 6.50668 9.79833 6.48739 9.70773 6.44987C9.61712 6.41236 9.5348 6.35736 9.46546 6.28802C9.39612 6.21868 9.34113 6.13636 9.30361 6.04576C9.2661 5.95516 9.2468 5.85805 9.24683 5.75999V1.27999C9.2468 1.18193 9.2661 1.08483 9.30361 0.994225C9.34113 0.903624 9.39612 0.821301 9.46546 0.751962C9.5348 0.682623 9.61712 0.627624 9.70773 0.59011C9.79833 0.552595 9.89543 0.5333 9.99349 0.533325H15.2202C15.3182 0.5333 15.4153 0.552595 15.5059 0.59011C15.5965 0.627624 15.6789 0.682623 15.7482 0.751962C15.8175 0.821301 15.8725 0.903624 15.91 0.994225C15.9476 1.08483 15.9669 1.18193 15.9668 1.27999V5.75999C15.9669 5.85805 15.9476 5.95516 15.91 6.04576C15.8725 6.13636 15.8175 6.21868 15.7482 6.28802C15.6789 6.35736 15.5965 6.41236 15.5059 6.44987C15.4153 6.48739 15.3182 6.50668 15.2202 6.50666Z" fill="#CFD8DC"/>
</svg>
