<svg width="17" height="16" viewBox="0 0 17 16" fill="none" xmlns="http://www.w3.org/2000/svg">
<path d="M1.80591 7.48718V8.2596L2.48048 14.5496C2.50715 14.8021 2.62636 15.0357 2.81511 15.2054C3.00387 15.3752 3.24879 15.469 3.50264 15.4688H13.4977C13.7515 15.469 13.9965 15.3752 14.1852 15.2054C14.374 15.0357 14.4932 14.8021 14.5198 14.5496L15.1944 8.2596V7.48718H1.80591Z" fill="#EE8022"/>
<path d="M11.8473 9.80444H11.3323C11.0479 9.80444 10.8174 10.035 10.8174 10.3194V13.409C10.8174 13.6934 11.0479 13.924 11.3323 13.924H11.8473C12.1317 13.924 12.3622 13.6934 12.3622 13.409V10.3194C12.3622 10.035 12.1317 9.80444 11.8473 9.80444Z" fill="#CFD8DC"/>
<path d="M8.75767 9.80444H8.24273C7.95833 9.80444 7.72778 10.035 7.72778 10.3194V13.409C7.72778 13.6934 7.95833 13.924 8.24273 13.924H8.75767C9.04206 13.924 9.27261 13.6934 9.27261 13.409V10.3194C9.27261 10.035 9.04206 9.80444 8.75767 9.80444Z" fill="#CFD8DC"/>
<path d="M5.66782 9.80444H5.15288C4.86849 9.80444 4.63794 10.035 4.63794 10.3194V13.409C4.63794 13.6934 4.86849 13.924 5.15288 13.924H5.66782C5.95222 13.924 6.18277 13.6934 6.18277 13.409V10.3194C6.18277 10.035 5.95222 9.80444 5.66782 9.80444Z" fill="#CFD8DC"/>
<path d="M15.4518 6.19983H1.54839C1.26399 6.19983 1.03345 6.43038 1.03345 6.71477V7.74466C1.03345 8.02905 1.26399 8.2596 1.54839 8.2596H15.4518C15.7362 8.2596 15.9668 8.02905 15.9668 7.74466V6.71477C15.9668 6.43038 15.7362 6.19983 15.4518 6.19983Z" fill="#CFD8DC"/>
<path d="M3.91081 6.42123L6.26023 0.906197C6.29614 0.828769 6.34709 0.759255 6.41011 0.7017C6.47313 0.644145 6.54697 0.599699 6.62733 0.570947C6.7077 0.542196 6.79297 0.529713 6.8782 0.534225C6.96343 0.538738 7.04691 0.560156 7.12379 0.597232C7.2619 0.657324 7.37092 0.769214 7.42739 0.908842C7.48387 1.04847 7.4833 1.20469 7.4258 1.3439L5.07586 6.85893C5.03996 6.93636 4.98901 7.00588 4.92598 7.06343C4.86296 7.12099 4.78912 7.16543 4.70876 7.19418C4.6284 7.22293 4.54312 7.23542 4.45789 7.23091C4.37266 7.22639 4.28918 7.20498 4.2123 7.1679C4.07429 7.10771 3.96539 6.99578 3.90901 6.85616C3.85263 6.71654 3.85328 6.56038 3.91081 6.42123ZM13.0897 6.42123L10.7402 0.906197C10.7043 0.828769 10.6534 0.759255 10.5904 0.7017C10.5273 0.644145 10.4535 0.599699 10.3731 0.570947C10.2928 0.542196 10.2075 0.529713 10.1223 0.534225C10.037 0.538738 9.95355 0.560156 9.87667 0.597232C9.73856 0.657324 9.62955 0.769214 9.57307 0.908842C9.51659 1.04847 9.51716 1.20469 9.57466 1.3439L11.9246 6.85893C11.9605 6.93636 12.0115 7.00588 12.0745 7.06343C12.1375 7.12099 12.2113 7.16543 12.2917 7.19418C12.3721 7.22293 12.4573 7.23542 12.5426 7.23091C12.6278 7.22639 12.7113 7.20498 12.7882 7.1679C12.9262 7.10771 13.0351 6.99578 13.0915 6.85616C13.1478 6.71654 13.1472 6.56038 13.0897 6.42123Z" fill="#EE8022"/>
</svg>
