<svg width="17" height="16" viewBox="0 0 17 16" fill="none" xmlns="http://www.w3.org/2000/svg">
<g clip-path="url(#clip0_2_3105)">
<path d="M16.1667 10.1V13.95C16.1667 14.5275 15.7167 15 15.1667 15H1.16675C0.616748 15 0.166748 14.5275 0.166748 13.95V10.1H5.16675V10.8C5.16675 11.3775 5.61675 11.85 6.16675 11.85H10.1667C10.7167 11.85 11.1667 11.3775 11.1667 10.8V10.1H16.1667ZM11.8334 2.39981V2.0498H13.1667C13.3067 2.0498 13.4301 2.14081 13.4767 2.27381L16.0601 9.39994H14.1667V7.64991C14.1667 7.1949 13.8867 6.80989 13.5001 6.66289V5.54987C13.5001 5.09486 13.2201 4.70985 12.8334 4.56285V3.44983C12.8334 2.87232 12.3834 2.39981 11.8334 2.39981ZM4.50008 2.0498V2.39981C3.95008 2.39981 3.50008 2.87232 3.50008 3.44983V4.56285C3.11341 4.70985 2.83341 5.09486 2.83341 5.54987V6.66289C2.44675 6.80989 2.16675 7.1949 2.16675 7.64991V9.39994H0.273415L2.85675 2.27381C2.90341 2.14081 3.02675 2.0498 3.16675 2.0498H4.50008Z" fill="#EE8022"/>
<path d="M6.16683 11.1502H10.1668C10.3502 11.1502 10.5002 10.9927 10.5002 10.8002V9.75016C10.5002 9.55766 10.6502 9.40015 10.8335 9.40015H13.5002V7.65012C13.5002 7.45762 13.3502 7.30011 13.1668 7.30011H3.16683C2.9835 7.30011 2.8335 7.45762 2.8335 7.65012V9.40015H5.50016C5.6835 9.40015 5.8335 9.55766 5.8335 9.75016V10.8002C5.8335 10.9927 5.9835 11.1502 6.16683 11.1502ZM12.5002 5.20008H3.8335C3.65016 5.20008 3.50016 5.35758 3.50016 5.55008V6.6001H12.8335V5.55008C12.8335 5.35758 12.6835 5.20008 12.5002 5.20008ZM11.1668 1.35001C11.1668 1.1575 11.0168 1 10.8335 1H5.50016C5.31683 1 5.16683 1.1575 5.16683 1.35001V2.40003H11.1668V1.35001ZM4.16683 3.45004V4.50006H12.1668V3.45004C12.1668 3.25754 12.0168 3.10004 11.8335 3.10004H4.50016C4.31683 3.10004 4.16683 3.25754 4.16683 3.45004Z" fill="#CFD8DC"/>
</g>
<defs>
<clipPath id="clip0_2_3105">
<rect width="16" height="16" fill="white" transform="translate(0.166748)"/>
</clipPath>
</defs>
</svg>
