<svg width="17" height="16" viewBox="0 0 17 16" fill="none" xmlns="http://www.w3.org/2000/svg">
<g clip-path="url(#clip0_2_3058)">
<path d="M8.83343 7.99999C10.8953 7.99999 12.5668 6.32852 12.5668 4.26666C12.5668 2.2048 10.8953 0.533325 8.83343 0.533325C6.77157 0.533325 5.1001 2.2048 5.1001 4.26666C5.1001 6.32852 6.77157 7.99999 8.83343 7.99999Z" fill="#CFD8DC"/>
<path d="M1.3667 13.2266V13.9733C1.3667 14.7981 2.10957 15.4666 3.02596 15.4666H14.6408C15.5572 15.4666 16.3 14.7981 16.3 13.9733V13.2266C16.3 11.1648 14.4428 9.49329 12.1519 9.49329H5.51485C3.22389 9.49329 1.3667 11.1648 1.3667 13.2266Z" fill="#EE8022"/>
</g>
<defs>
<clipPath id="clip0_2_3058">
<rect width="16" height="16" fill="white" transform="translate(0.833252)"/>
</clipPath>
</defs>
</svg>
