<svg width="20" height="25" viewBox="0 0 20 25" fill="none" xmlns="http://www.w3.org/2000/svg">
<g filter="url(#filter0_d_2_3038)">
<path d="M9.83442 10.6C10.8285 10.6 11.6344 9.79411 11.6344 8.8C11.6344 7.80589 10.8285 7 9.83442 7C8.84031 7 8.03442 7.80589 8.03442 8.8C8.03442 9.79411 8.84031 10.6 9.83442 10.6Z" stroke="#263238" stroke-width="1.2" stroke-linecap="round" stroke-linejoin="round"/>
<path d="M9.83442 4C8.56138 4 7.34049 4.50571 6.44031 5.40589C5.54014 6.30606 5.03442 7.52696 5.03442 8.8C5.03442 9.9352 5.27562 10.678 5.93442 11.5L9.83442 16L13.7344 11.5C14.3932 10.678 14.6344 9.9352 14.6344 8.8C14.6344 7.52696 14.1287 6.30606 13.2285 5.40589C12.3284 4.50571 11.1075 4 9.83442 4V4Z" stroke="#263238" stroke-width="1.2" stroke-linecap="round" stroke-linejoin="round"/>
</g>
<defs>
<filter id="filter0_d_2_3038" x="-2.16675" y="2" width="24" height="24" filterUnits="userSpaceOnUse" color-interpolation-filters="sRGB">
<feFlood flood-opacity="0" result="BackgroundImageFix"/>
<feColorMatrix in="SourceAlpha" type="matrix" values="0 0 0 0 0 0 0 0 0 0 0 0 0 0 0 0 0 0 127 0" result="hardAlpha"/>
<feOffset dy="4"/>
<feGaussianBlur stdDeviation="2"/>
<feComposite in2="hardAlpha" operator="out"/>
<feColorMatrix type="matrix" values="0 0 0 0 0 0 0 0 0 0 0 0 0 0 0 0 0 0 0.25 0"/>
<feBlend mode="normal" in2="BackgroundImageFix" result="effect1_dropShadow_2_3038"/>
<feBlend mode="normal" in="SourceGraphic" in2="effect1_dropShadow_2_3038" result="shape"/>
</filter>
</defs>
</svg>
