<svg width="17" height="20" viewBox="0 0 17 20" fill="none" xmlns="http://www.w3.org/2000/svg">
<path d="M14.8274 13.1057C14.7246 13.9051 14.3344 14.6397 13.7295 15.1723C13.1247 15.7049 12.3466 15.9991 11.5407 16C6.73933 16 2.83325 12.0939 2.83325 7.29257C2.83412 6.48664 3.12835 5.70858 3.66097 5.10373C4.1936 4.49888 4.9282 4.10861 5.72755 4.00582C5.91149 3.98429 6.09745 4.02282 6.2577 4.11565C6.41794 4.20848 6.54387 4.35064 6.61669 4.52091L7.84922 7.39682C7.90513 7.52694 7.92822 7.6688 7.91646 7.80994C7.9047 7.95108 7.85845 8.08716 7.78177 8.20624L6.75773 9.76376C6.74761 9.78133 6.74178 9.80104 6.74071 9.82128C6.73964 9.84153 6.74337 9.86174 6.7516 9.88027C7.22261 10.846 8.00434 11.6256 8.97138 12.0939C8.99015 12.1023 9.01082 12.1057 9.03128 12.1035C9.05175 12.1013 9.07128 12.0938 9.08788 12.0817L10.627 11.0576C10.7449 10.9784 10.8809 10.9301 11.0223 10.9173C11.1638 10.9044 11.3062 10.9274 11.4364 10.984L14.3123 12.2166C14.4826 12.2894 14.6248 12.4153 14.7176 12.5756C14.8104 12.7358 14.849 12.9218 14.8274 13.1057ZM14.0977 13.0137C14.0998 12.9882 14.0939 12.9626 14.0807 12.9406C14.0675 12.9186 14.0477 12.9013 14.0241 12.8911L11.1482 11.6585C11.1292 11.6512 11.1088 11.6485 11.0885 11.6507C11.0683 11.6528 11.0488 11.6597 11.0317 11.6708L9.49873 12.6949C9.37461 12.7764 9.23171 12.8248 9.08359 12.8356C8.93548 12.8463 8.78709 12.819 8.65251 12.7562C7.53712 12.2132 6.63501 11.3132 6.08934 10.1991C6.02561 10.0662 5.99722 9.91901 6.00688 9.77186C6.01655 9.62472 6.06395 9.48255 6.14453 9.35905L7.16244 7.80153C7.17459 7.78492 7.18213 7.76539 7.18428 7.74493C7.18643 7.72446 7.18313 7.70379 7.1747 7.68502L5.94217 4.80911C5.93277 4.78756 5.91736 4.76916 5.89779 4.75611C5.87822 4.74306 5.85531 4.73592 5.8318 4.73553H5.81953C5.19847 4.81717 4.6281 5.12132 4.21425 5.59155C3.8004 6.06178 3.57117 6.66617 3.56909 7.29257C3.57072 9.40627 4.4111 11.4329 5.90571 12.9275C7.40032 14.4222 9.42698 15.2625 11.5407 15.2642C12.1671 15.2621 12.7715 15.0329 13.2417 14.619C13.7119 14.2052 14.0161 13.6348 14.0977 13.0137Z" fill="#263238" stroke="#263238" stroke-width="0.4"/>
</svg>
