<svg width="214" height="56" viewBox="0 0 214 56" fill="none" xmlns="http://www.w3.org/2000/svg">
<path d="M52 16.0149C52 14.4684 52.3353 13.0929 53.006 11.8885C53.6767 10.6691 54.6082 9.72491 55.8005 9.05576C57.0078 8.37175 58.3715 8.02974 59.8917 8.02974C61.7547 8.02974 63.3494 8.52045 64.6759 9.50186C66.0023 10.4833 66.8891 11.8216 67.3362 13.5167H63.1333C62.8203 12.8625 62.3732 12.3643 61.7919 12.0223C61.2256 11.6803 60.5773 11.5093 59.847 11.5093C58.6696 11.5093 57.7157 11.9182 56.9854 12.7361C56.2551 13.5539 55.89 14.6468 55.89 16.0149C55.89 17.3829 56.2551 18.4758 56.9854 19.2937C57.7157 20.1115 58.6696 20.5204 59.847 20.5204C60.5773 20.5204 61.2256 20.3494 61.7919 20.0074C62.3732 19.6654 62.8203 19.1673 63.1333 18.513H67.3362C66.8891 20.2082 66.0023 21.5465 64.6759 22.5279C63.3494 23.4944 61.7547 23.9777 59.8917 23.9777C58.3715 23.9777 57.0078 23.6431 55.8005 22.974C54.6082 22.29 53.6767 21.3457 53.006 20.1413C52.3353 18.9368 52 17.5613 52 16.0149Z" fill="black"/>
<path d="M84.41 8.20818L78.8433 23.8662H74.0591L68.4925 8.20818H72.5613L76.4512 20.0297L80.3635 8.20818H84.41Z" fill="black"/>
<path d="M96.4257 13.1599C96.1425 12.6394 95.7326 12.2454 95.1961 11.9777C94.6744 11.6952 94.0559 11.5539 93.3405 11.5539C92.1035 11.5539 91.1124 11.9628 90.3672 12.7807C89.622 13.5836 89.2494 14.6617 89.2494 16.0149C89.2494 17.4572 89.6369 18.5874 90.4119 19.4052C91.2018 20.2082 92.2823 20.6097 93.6535 20.6097C94.5925 20.6097 95.3824 20.3717 96.0233 19.8959C96.679 19.4201 97.156 18.7361 97.454 17.8439H92.6028V15.0335H100.919V18.5799C100.636 19.5316 100.152 20.4164 99.4661 21.2342C98.7954 22.052 97.9384 22.7138 96.8951 23.2193C95.8518 23.7249 94.6744 23.9777 93.3629 23.9777C91.8129 23.9777 90.4268 23.6431 89.2047 22.974C87.9974 22.29 87.051 21.3457 86.3654 20.1413C85.6948 18.9368 85.3594 17.5613 85.3594 16.0149C85.3594 14.4684 85.6948 13.0929 86.3654 11.8885C87.051 10.6691 87.9974 9.72491 89.2047 9.05576C90.4119 8.37175 91.7905 8.02974 93.3405 8.02974C95.2184 8.02974 96.7983 8.48327 98.08 9.39033C99.3767 10.2974 100.234 11.5539 100.651 13.1599H96.4257Z" fill="black"/>
<path d="M117.276 15.8364C118.185 16.0297 118.915 16.4833 119.467 17.197C120.018 17.8959 120.294 18.6989 120.294 19.6059C120.294 20.9145 119.832 21.9554 118.908 22.7286C117.998 23.487 116.724 23.8662 115.085 23.8662H107.774V8.20818H114.839C116.434 8.20818 117.678 8.57249 118.572 9.30112C119.481 10.0297 119.936 11.0186 119.936 12.2677C119.936 13.1896 119.69 13.9554 119.198 14.5651C118.721 15.1747 118.08 15.5985 117.276 15.8364ZM111.597 14.5428H114.101C114.727 14.5428 115.204 14.4089 115.532 14.1413C115.875 13.8587 116.046 13.4498 116.046 12.9145C116.046 12.3792 115.875 11.9703 115.532 11.6877C115.204 11.4052 114.727 11.2639 114.101 11.2639H111.597V14.5428ZM114.414 20.7881C115.055 20.7881 115.547 20.6468 115.89 20.3643C116.247 20.0669 116.426 19.6431 116.426 19.0929C116.426 18.5428 116.24 18.1115 115.867 17.7993C115.51 17.487 115.01 17.3309 114.369 17.3309H111.597V20.7881H114.414Z" fill="black"/>
<path d="M134.829 11.4201V23.8662H131.006V22.171C130.619 22.7212 130.09 23.1673 129.419 23.5093C128.763 23.8364 128.033 24 127.228 24C126.274 24 125.432 23.7918 124.702 23.3755C123.972 22.9442 123.405 22.3271 123.003 21.5242C122.6 20.7212 122.399 19.777 122.399 18.6915V11.4201H126.2V18.1784C126.2 19.0112 126.416 19.658 126.848 20.119C127.28 20.5799 127.862 20.8104 128.592 20.8104C129.337 20.8104 129.926 20.5799 130.358 20.119C130.79 19.658 131.006 19.0112 131.006 18.1784V11.4201H134.829Z" fill="black"/>
<path d="M139.498 10.1264C138.827 10.1264 138.276 9.93309 137.843 9.54647C137.426 9.14498 137.217 8.65428 137.217 8.07435C137.217 7.47956 137.426 6.98885 137.843 6.60223C138.276 6.20074 138.827 6 139.498 6C140.154 6 140.69 6.20074 141.107 6.60223C141.54 6.98885 141.756 7.47956 141.756 8.07435C141.756 8.65428 141.54 9.14498 141.107 9.54647C140.69 9.93309 140.154 10.1264 139.498 10.1264ZM141.398 11.4201V23.8662H137.575V11.4201H141.398Z" fill="black"/>
<path d="M147.991 7.3606V23.8662H144.168V7.3606H147.991Z" fill="black"/>
<path d="M150.002 17.6208C150.002 16.342 150.24 15.2193 150.717 14.2528C151.209 13.2862 151.872 12.5428 152.707 12.0223C153.541 11.5019 154.473 11.2416 155.501 11.2416C156.321 11.2416 157.066 11.4126 157.737 11.7546C158.422 12.0967 158.959 12.5576 159.346 13.1375V7.3606H163.169V23.8662H159.346V22.0818C158.989 22.6766 158.475 23.1524 157.804 23.5093C157.148 23.8662 156.38 24.0446 155.501 24.0446C154.473 24.0446 153.541 23.7844 152.707 23.2639C151.872 22.7286 151.209 21.9777 150.717 21.0112C150.24 20.0297 150.002 18.8996 150.002 17.6208ZM159.346 17.6431C159.346 16.6915 159.078 15.9405 158.542 15.3903C158.02 14.8401 157.379 14.5651 156.619 14.5651C155.859 14.5651 155.211 14.8401 154.674 15.3903C154.152 15.9257 153.892 16.6691 153.892 17.6208C153.892 18.5725 154.152 19.3309 154.674 19.8959C155.211 20.4461 155.859 20.7212 156.619 20.7212C157.379 20.7212 158.02 20.4461 158.542 19.8959C159.078 19.3457 159.346 18.5948 159.346 17.6431Z" fill="black"/>
<path d="M167.858 10.1264C167.187 10.1264 166.635 9.93309 166.203 9.54647C165.786 9.14498 165.577 8.65428 165.577 8.07435C165.577 7.47956 165.786 6.98885 166.203 6.60223C166.635 6.20074 167.187 6 167.858 6C168.513 6 169.05 6.20074 169.467 6.60223C169.899 6.98885 170.116 7.47956 170.116 8.07435C170.116 8.65428 169.899 9.14498 169.467 9.54647C169.05 9.93309 168.513 10.1264 167.858 10.1264ZM169.758 11.4201V23.8662H165.935V11.4201H169.758Z" fill="black"/>
<path d="M180.129 11.2862C181.59 11.2862 182.752 11.7621 183.617 12.7138C184.496 13.6506 184.936 14.9442 184.936 16.5948V23.8662H181.135V17.1078C181.135 16.2751 180.919 15.6283 180.487 15.1673C180.055 14.7063 179.474 14.4758 178.743 14.4758C178.013 14.4758 177.432 14.7063 176.999 15.1673C176.567 15.6283 176.351 16.2751 176.351 17.1078V23.8662H172.528V11.4201H176.351V13.0706C176.739 12.5204 177.26 12.0892 177.916 11.777C178.572 11.4498 179.31 11.2862 180.129 11.2862Z" fill="black"/>
<path d="M192.332 11.2416C193.211 11.2416 193.979 11.4201 194.635 11.777C195.305 12.1338 195.819 12.6022 196.177 13.1822V11.4201H200V23.8439C200 24.9888 199.769 26.0223 199.307 26.9442C198.86 27.881 198.167 28.6245 197.228 29.1747C196.304 29.7249 195.149 30 193.763 30C191.915 30 190.417 29.5613 189.269 28.684C188.121 27.8216 187.466 26.6468 187.302 25.1599H191.08C191.199 25.6357 191.482 26.0074 191.929 26.2751C192.377 26.5576 192.928 26.6989 193.584 26.6989C194.374 26.6989 195 26.4684 195.462 26.0074C195.939 25.5613 196.177 24.8401 196.177 23.8439V22.0818C195.805 22.6617 195.29 23.1375 194.635 23.5093C193.979 23.8662 193.211 24.0446 192.332 24.0446C191.304 24.0446 190.372 23.7844 189.537 23.2639C188.703 22.7286 188.04 21.9777 187.548 21.0112C187.071 20.0297 186.832 18.8996 186.832 17.6208C186.832 16.342 187.071 15.2193 187.548 14.2528C188.04 13.2862 188.703 12.5428 189.537 12.0223C190.372 11.5019 191.304 11.2416 192.332 11.2416ZM196.177 17.6431C196.177 16.6915 195.909 15.9405 195.372 15.3903C194.851 14.8401 194.21 14.5651 193.45 14.5651C192.69 14.5651 192.041 14.8401 191.505 15.3903C190.983 15.9257 190.722 16.6691 190.722 17.6208C190.722 18.5725 190.983 19.3309 191.505 19.8959C192.041 20.4461 192.69 20.7212 193.45 20.7212C194.21 20.7212 194.851 20.4461 195.372 19.8959C195.909 19.3457 196.177 18.5948 196.177 17.6431Z" fill="black"/>
<path d="M56.9159 36.5677V46.8991H55.4942V36.5677H56.9159ZM60.4176 36.5677V37.6888H52V36.5677H60.4176Z" fill="black"/>
<path d="M65.745 45.5864V41.6341C65.745 41.3313 65.6802 41.0688 65.5505 40.8464C65.4258 40.6194 65.2362 40.4443 64.9818 40.3213C64.7274 40.1983 64.4132 40.1368 64.0391 40.1368C63.6899 40.1368 63.3831 40.1936 63.1187 40.3071C62.8594 40.4207 62.6548 40.5697 62.5052 40.7542C62.3605 40.9387 62.2882 41.1374 62.2882 41.3502H60.904C60.904 41.0759 60.9788 40.8039 61.1284 40.5342C61.2781 40.2646 61.4926 40.0209 61.7719 39.8033C62.0563 39.581 62.3955 39.406 62.7895 39.2783C63.1886 39.1458 63.6325 39.0796 64.1214 39.0796C64.71 39.0796 65.2288 39.1742 65.6777 39.3634C66.1316 39.5526 66.4858 39.8388 66.7402 40.222C66.9996 40.6004 67.1293 41.0759 67.1293 41.6483V45.2245C67.1293 45.48 67.1517 45.752 67.1966 46.0405C67.2465 46.3291 67.3188 46.5775 67.4136 46.7856V46.8991H65.9695C65.8997 46.7478 65.8448 46.5467 65.8049 46.296C65.765 46.0405 65.745 45.804 65.745 45.5864ZM65.9845 42.2443L65.9994 43.1668H64.6002C64.2062 43.1668 63.8545 43.1975 63.5452 43.259C63.236 43.3158 62.9766 43.4033 62.7671 43.5215C62.5576 43.6398 62.3979 43.7888 62.2882 43.9686C62.1785 44.1436 62.1236 44.3494 62.1236 44.5859C62.1236 44.8272 62.181 45.0471 62.2957 45.2458C62.4104 45.4445 62.5825 45.603 62.812 45.7212C63.0464 45.8348 63.3332 45.8915 63.6724 45.8915C64.0964 45.8915 64.4706 45.8064 64.7948 45.6361C65.119 45.4658 65.3759 45.2576 65.5655 45.0117C65.76 44.7657 65.8648 44.5268 65.8797 44.295L66.4708 44.9265C66.4359 45.1252 66.3411 45.3452 66.1865 45.5864C66.0319 45.8277 65.8249 46.0595 65.5655 46.2818C65.3111 46.4994 65.0068 46.6815 64.6526 46.8282C64.3035 46.9701 63.9094 47.0411 63.4704 47.0411C62.9217 47.0411 62.4403 46.9393 62.0263 46.7359C61.6173 46.5325 61.298 46.2605 61.0686 45.9199C60.8441 45.5746 60.7319 45.1891 60.7319 44.7633C60.7319 44.3517 60.8167 43.9899 60.9863 43.6776C61.1559 43.3607 61.4003 43.0982 61.7196 42.89C62.0388 42.6771 62.4229 42.5163 62.8718 42.4075C63.3208 42.2987 63.8221 42.2443 64.3758 42.2443H65.9845ZM64.69 36L66.5457 37.9372V38.0081H65.3934L64.271 36.8089L63.1562 38.0081H62.0188V37.9301L63.852 36H64.69ZM62.812 48.6447C62.812 48.4318 62.8793 48.2521 63.014 48.1054C63.1537 47.9588 63.3582 47.8855 63.6275 47.8855C63.8919 47.8855 64.0939 47.9588 64.2336 48.1054C64.3783 48.2521 64.4506 48.4318 64.4506 48.6447C64.4506 48.8481 64.3783 49.0208 64.2336 49.1627C64.0939 49.3093 63.8919 49.3827 63.6275 49.3827C63.3582 49.3827 63.1537 49.3093 63.014 49.1627C62.8793 49.0208 62.812 48.8481 62.812 48.6447Z" fill="black"/>
<path d="M70.6909 40.6974V49.851H69.2992V39.2215H70.5712L70.6909 40.6974ZM76.1455 42.9965V43.1455C76.1455 43.7037 76.0757 44.2217 75.936 44.6994C75.7963 45.1725 75.5918 45.5841 75.3224 45.9341C75.0581 46.2842 74.7313 46.5562 74.3422 46.7501C73.9532 46.9441 73.5067 47.0411 73.0029 47.0411C72.4891 47.0411 72.0352 46.9606 71.6411 46.7998C71.2471 46.639 70.9128 46.4048 70.6385 46.0973C70.3641 45.7898 70.1447 45.4208 69.98 44.9904C69.8204 44.5599 69.7107 44.075 69.6508 43.5357V42.741C69.7107 42.1733 69.8229 41.6648 69.9875 41.2154C70.1521 40.766 70.3691 40.3828 70.6385 40.0659C70.9128 39.7442 71.2446 39.5006 71.6336 39.335C72.0227 39.1647 72.4717 39.0796 72.9805 39.0796C73.4893 39.0796 73.9407 39.1742 74.3348 39.3634C74.7288 39.5479 75.0606 39.8128 75.3299 40.1581C75.5993 40.5035 75.8013 40.9174 75.936 41.3999C76.0757 41.8777 76.1455 42.4099 76.1455 42.9965ZM74.7538 43.1455V42.9965C74.7538 42.6133 74.7114 42.2538 74.6266 41.9179C74.5418 41.5773 74.4096 41.2793 74.23 41.0238C74.0554 40.7636 73.831 40.5602 73.5566 40.4136C73.2822 40.2622 72.9555 40.1865 72.5764 40.1865C72.2272 40.1865 71.923 40.2433 71.6636 40.3568C71.4092 40.4703 71.1922 40.6241 71.0126 40.818C70.833 41.0073 70.6859 41.2249 70.5712 41.4709C70.4614 41.7121 70.3791 41.9628 70.3242 42.223V44.0608C70.424 44.392 70.5637 44.7042 70.7432 44.9975C70.9228 45.286 71.1623 45.5202 71.4615 45.6999C71.7608 45.875 72.1375 45.9625 72.5914 45.9625C72.9655 45.9625 73.2872 45.8892 73.5566 45.7425C73.831 45.5911 74.0554 45.3854 74.23 45.1252C74.4096 44.865 74.5418 44.567 74.6266 44.2311C74.7114 43.8905 74.7538 43.5286 74.7538 43.1455Z" fill="black"/>
<path d="M86.8153 45.409V36H88.207V46.8991H86.935L86.8153 45.409ZM81.3682 43.1455V42.9965C81.3682 42.4099 81.443 41.8777 81.5926 41.3999C81.7473 40.9174 81.9643 40.5035 82.2436 40.1581C82.5279 39.8128 82.8646 39.5479 83.2537 39.3634C83.6478 39.1742 84.0867 39.0796 84.5706 39.0796C85.0794 39.0796 85.5233 39.1647 85.9025 39.335C86.2865 39.5006 86.6108 39.7442 86.8752 40.0659C87.1445 40.3828 87.3565 40.766 87.5112 41.2154C87.6658 41.6648 87.773 42.1733 87.8329 42.741V43.3938C87.778 43.9567 87.6708 44.4629 87.5112 44.9123C87.3565 45.3617 87.1445 45.7449 86.8752 46.0618C86.6108 46.3788 86.2865 46.6224 85.9025 46.7927C85.5184 46.9583 85.0694 47.0411 84.5556 47.0411C84.0818 47.0411 83.6478 46.9441 83.2537 46.7501C82.8646 46.5562 82.5279 46.2842 82.2436 45.9341C81.9643 45.5841 81.7473 45.1725 81.5926 44.6994C81.443 44.2217 81.3682 43.7037 81.3682 43.1455ZM82.7599 42.9965V43.1455C82.7599 43.5286 82.7998 43.8882 82.8796 44.224C82.9644 44.5599 83.0941 44.8555 83.2687 45.111C83.4433 45.3664 83.6652 45.5675 83.9346 45.7141C84.204 45.8561 84.5257 45.927 84.8998 45.927C85.3587 45.927 85.7353 45.8348 86.0297 45.6503C86.3289 45.4658 86.5684 45.2222 86.748 44.9194C86.9275 44.6167 87.0672 44.2879 87.167 43.9331V42.223C87.1071 41.9628 87.0198 41.7121 86.9051 41.4709C86.7953 41.2249 86.6507 41.0073 86.4711 40.818C86.2965 40.6241 86.0795 40.4703 85.8201 40.3568C85.5657 40.2433 85.264 40.1865 84.9148 40.1865C84.5357 40.1865 84.209 40.2622 83.9346 40.4136C83.6652 40.5602 83.4433 40.7636 83.2687 41.0238C83.0941 41.2793 82.9644 41.5773 82.8796 41.9179C82.7998 42.2538 82.7599 42.6133 82.7599 42.9965ZM89.6137 37.0715V38.15H84.8474V37.0715H89.6137Z" fill="black"/>
<path d="M90.5041 43.1455V42.9823C90.5041 42.4288 90.5889 41.9155 90.7585 41.4425C90.9281 40.9647 91.1725 40.5508 91.4918 40.2007C91.811 39.8459 92.1976 39.5715 92.6515 39.3776C93.1054 39.1789 93.6142 39.0796 94.1779 39.0796C94.7466 39.0796 95.2579 39.1789 95.7118 39.3776C96.1707 39.5715 96.5598 39.8459 96.879 40.2007C97.2033 40.5508 97.4502 40.9647 97.6198 41.4425C97.7894 41.9155 97.8742 42.4288 97.8742 42.9823V43.1455C97.8742 43.6989 97.7894 44.2122 97.6198 44.6853C97.4502 45.1583 97.2033 45.5722 96.879 45.927C96.5598 46.2771 96.1732 46.5514 95.7193 46.7501C95.2703 46.9441 94.7615 47.0411 94.1929 47.0411C93.6242 47.0411 93.1129 46.9441 92.659 46.7501C92.2051 46.5514 91.816 46.2771 91.4918 45.927C91.1725 45.5722 90.9281 45.1583 90.7585 44.6853C90.5889 44.2122 90.5041 43.6989 90.5041 43.1455ZM91.8883 42.9823V43.1455C91.8883 43.5286 91.9357 43.8905 92.0305 44.2311C92.1253 44.567 92.2674 44.865 92.457 45.1252C92.6515 45.3854 92.8934 45.5911 93.1828 45.7425C93.4721 45.8892 93.8088 45.9625 94.1929 45.9625C94.572 45.9625 94.9037 45.8892 95.188 45.7425C95.4773 45.5911 95.7168 45.3854 95.9063 45.1252C96.0959 44.865 96.238 44.567 96.3328 44.2311C96.4326 43.8905 96.4825 43.5286 96.4825 43.1455V42.9823C96.4825 42.6038 96.4326 42.2467 96.3328 41.9108C96.238 41.5702 96.0934 41.2698 95.8988 41.0096C95.7093 40.7447 95.4699 40.5366 95.1805 40.3852C94.8962 40.2338 94.562 40.1581 94.1779 40.1581C93.7988 40.1581 93.4646 40.2338 93.1753 40.3852C92.891 40.5366 92.6515 40.7447 92.457 41.0096C92.2674 41.2698 92.1253 41.5702 92.0305 41.9108C91.9357 42.2467 91.8883 42.6038 91.8883 42.9823Z" fill="black"/>
<path d="M104.384 45.5864V41.6341C104.384 41.3313 104.319 41.0688 104.189 40.8464C104.065 40.6194 103.875 40.4443 103.621 40.3213C103.366 40.1983 103.052 40.1368 102.678 40.1368C102.329 40.1368 102.022 40.1936 101.758 40.3071C101.498 40.4207 101.294 40.5697 101.144 40.7542C100.999 40.9387 100.927 41.1374 100.927 41.3502H99.5427C99.5427 41.0759 99.6176 40.8039 99.7672 40.5342C99.9169 40.2646 100.131 40.0209 100.411 39.8033C100.695 39.581 101.034 39.406 101.428 39.2783C101.827 39.1458 102.271 39.0796 102.76 39.0796C103.349 39.0796 103.868 39.1742 104.316 39.3634C104.77 39.5526 105.125 39.8388 105.379 40.222C105.638 40.6004 105.768 41.0759 105.768 41.6483V45.2245C105.768 45.48 105.79 45.752 105.835 46.0405C105.885 46.3291 105.958 46.5775 106.052 46.7856V46.8991H104.608C104.538 46.7478 104.484 46.5467 104.444 46.296C104.404 46.0405 104.384 45.804 104.384 45.5864ZM104.623 42.2443L104.638 43.1668H103.239C102.845 43.1668 102.493 43.1975 102.184 43.259C101.875 43.3158 101.615 43.4033 101.406 43.5215C101.196 43.6398 101.037 43.7888 100.927 43.9686C100.817 44.1436 100.762 44.3494 100.762 44.5859C100.762 44.8272 100.82 45.0471 100.934 45.2458C101.049 45.4445 101.221 45.603 101.451 45.7212C101.685 45.8348 101.972 45.8915 102.311 45.8915C102.735 45.8915 103.109 45.8064 103.434 45.6361C103.758 45.4658 104.015 45.2576 104.204 45.0117C104.399 44.7657 104.504 44.5268 104.518 44.295L105.11 44.9265C105.075 45.1252 104.98 45.3452 104.825 45.5864C104.671 45.8277 104.464 46.0595 104.204 46.2818C103.95 46.4994 103.646 46.6815 103.291 46.8282C102.942 46.9701 102.548 47.0411 102.109 47.0411C101.56 47.0411 101.079 46.9393 100.665 46.7359C100.256 46.5325 99.9368 46.2605 99.7074 45.9199C99.4829 45.5746 99.3707 45.1891 99.3707 44.7633C99.3707 44.3517 99.4555 43.9899 99.625 43.6776C99.7946 43.3607 100.039 43.0982 100.358 42.89C100.678 42.6771 101.062 42.5163 101.511 42.4075C101.96 42.2987 102.461 42.2443 103.015 42.2443H104.623ZM102.251 36L103.695 38.0862H102.506L100.575 36H102.251Z" fill="black"/>
<path d="M109.33 40.8606V46.8991H107.945V39.2215H109.255L109.33 40.8606ZM109 42.7694L108.424 42.7481C108.429 42.223 108.512 41.7381 108.671 41.2935C108.831 40.8441 109.055 40.4538 109.345 40.1227C109.634 39.7915 109.978 39.5361 110.377 39.3563C110.781 39.1718 111.228 39.0796 111.717 39.0796C112.116 39.0796 112.475 39.1316 112.794 39.2357C113.113 39.335 113.385 39.4959 113.61 39.7182C113.839 39.9405 114.014 40.2291 114.133 40.5839C114.253 40.9339 114.313 41.3621 114.313 41.8682V46.8991H112.921V41.854C112.921 41.4519 112.859 41.1303 112.734 40.889C112.609 40.643 112.427 40.4656 112.188 40.3568C111.948 40.2433 111.654 40.1865 111.305 40.1865C110.961 40.1865 110.647 40.2551 110.362 40.3923C110.083 40.5295 109.841 40.7187 109.636 40.96C109.437 41.2012 109.28 41.478 109.165 41.7902C109.055 42.0977 109 42.4241 109 42.7694Z" fill="black"/>
<path d="M121.152 39.2215L122.925 42.0172L124.721 39.2215H126.344L123.696 43.0106L126.427 46.8991H124.826L122.955 44.0182L121.084 46.8991H119.476L122.199 43.0106L119.558 39.2215H121.152Z" fill="black"/>
<path d="M132.592 45.5864V41.6341C132.592 41.3313 132.527 41.0688 132.398 40.8464C132.273 40.6194 132.083 40.4443 131.829 40.3213C131.575 40.1983 131.26 40.1368 130.886 40.1368C130.537 40.1368 130.23 40.1936 129.966 40.3071C129.707 40.4207 129.502 40.5697 129.352 40.7542C129.208 40.9387 129.135 41.1374 129.135 41.3502H127.751C127.751 41.0759 127.826 40.8039 127.976 40.5342C128.125 40.2646 128.34 40.0209 128.619 39.8033C128.903 39.581 129.243 39.406 129.637 39.2783C130.036 39.1458 130.48 39.0796 130.969 39.0796C131.557 39.0796 132.076 39.1742 132.525 39.3634C132.979 39.5526 133.333 39.8388 133.587 40.222C133.847 40.6004 133.976 41.0759 133.976 41.6483V45.2245C133.976 45.48 133.999 45.752 134.044 46.0405C134.094 46.3291 134.166 46.5775 134.261 46.7856V46.8991H132.817C132.747 46.7478 132.692 46.5467 132.652 46.296C132.612 46.0405 132.592 45.804 132.592 45.5864ZM132.832 42.2443L132.847 43.1668H131.447C131.053 43.1668 130.702 43.1975 130.392 43.259C130.083 43.3158 129.824 43.4033 129.614 43.5215C129.405 43.6398 129.245 43.7888 129.135 43.9686C129.026 44.1436 128.971 44.3494 128.971 44.5859C128.971 44.8272 129.028 45.0471 129.143 45.2458C129.258 45.4445 129.43 45.603 129.659 45.7212C129.894 45.8348 130.18 45.8915 130.52 45.8915C130.944 45.8915 131.318 45.8064 131.642 45.6361C131.966 45.4658 132.223 45.2576 132.413 45.0117C132.607 44.7657 132.712 44.5268 132.727 44.295L133.318 44.9265C133.283 45.1252 133.188 45.3452 133.034 45.5864C132.879 45.8277 132.672 46.0595 132.413 46.2818C132.158 46.4994 131.854 46.6815 131.5 46.8282C131.151 46.9701 130.757 47.0411 130.318 47.0411C129.769 47.0411 129.288 46.9393 128.873 46.7359C128.464 46.5325 128.145 46.2605 127.916 45.9199C127.691 45.5746 127.579 45.1891 127.579 44.7633C127.579 44.3517 127.664 43.9899 127.833 43.6776C128.003 43.3607 128.247 43.0982 128.567 42.89C128.886 42.6771 129.27 42.5163 129.719 42.4075C130.168 42.2987 130.669 42.2443 131.223 42.2443H132.832ZM131.537 36L133.393 37.9372V38.0081H132.241L131.118 36.8089L130.003 38.0081H128.866V37.9301L130.699 36H131.537Z" fill="black"/>
<path d="M138.309 46.1044L140.561 39.2215H142.042L138.795 48.0841C138.72 48.2734 138.62 48.4768 138.496 48.6944C138.376 48.9167 138.221 49.1272 138.032 49.3259C137.842 49.5246 137.613 49.6854 137.343 49.8084C137.079 49.9361 136.762 50 136.393 50C136.283 50 136.144 49.9858 135.974 49.9574C135.805 49.929 135.685 49.9054 135.615 49.8865L135.608 48.8221C135.648 48.8268 135.71 48.8316 135.795 48.8363C135.884 48.8458 135.947 48.8505 135.982 48.8505C136.296 48.8505 136.563 48.8103 136.782 48.7299C137.002 48.6542 137.186 48.5241 137.336 48.3396C137.491 48.1598 137.623 47.9115 137.733 47.5945L138.309 46.1044ZM136.655 39.2215L138.758 45.182L139.117 46.5656L138.122 47.0482L135.144 39.2215H136.655Z" fill="black"/>
<path d="M152.196 45.409V36H153.588V46.8991H152.316L152.196 45.409ZM146.749 43.1455V42.9965C146.749 42.4099 146.824 41.8777 146.973 41.3999C147.128 40.9174 147.345 40.5035 147.624 40.1581C147.909 39.8128 148.245 39.5479 148.634 39.3634C149.028 39.1742 149.467 39.0796 149.951 39.0796C150.46 39.0796 150.904 39.1647 151.283 39.335C151.667 39.5006 151.991 39.7442 152.256 40.0659C152.525 40.3828 152.737 40.766 152.892 41.2154C153.046 41.6648 153.154 42.1733 153.214 42.741V43.3938C153.159 43.9567 153.051 44.4629 152.892 44.9123C152.737 45.3617 152.525 45.7449 152.256 46.0618C151.991 46.3788 151.667 46.6224 151.283 46.7927C150.899 46.9583 150.45 47.0411 149.936 47.0411C149.462 47.0411 149.028 46.9441 148.634 46.7501C148.245 46.5562 147.909 46.2842 147.624 45.9341C147.345 45.5841 147.128 45.1725 146.973 44.6994C146.824 44.2217 146.749 43.7037 146.749 43.1455ZM148.141 42.9965V43.1455C148.141 43.5286 148.18 43.8882 148.26 44.224C148.345 44.5599 148.475 44.8555 148.649 45.111C148.824 45.3664 149.046 45.5675 149.315 45.7141C149.585 45.8561 149.906 45.927 150.28 45.927C150.739 45.927 151.116 45.8348 151.41 45.6503C151.71 45.4658 151.949 45.2222 152.129 44.9194C152.308 44.6167 152.448 44.2879 152.548 43.9331V42.223C152.488 41.9628 152.4 41.7121 152.286 41.4709C152.176 41.2249 152.031 41.0073 151.852 40.818C151.677 40.6241 151.46 40.4703 151.201 40.3568C150.946 40.2433 150.645 40.1865 150.295 40.1865C149.916 40.1865 149.59 40.2622 149.315 40.4136C149.046 40.5602 148.824 40.7636 148.649 41.0238C148.475 41.2793 148.345 41.5773 148.26 41.9179C148.18 42.2538 148.141 42.6133 148.141 42.9965Z" fill="black"/>
<path d="M163.322 38.6042H164.385C164.385 39.1198 164.312 39.5526 164.168 39.9027C164.028 40.2527 163.781 40.5153 163.427 40.6903C163.073 40.8653 162.574 40.9529 161.93 40.9529V40.1439C162.379 40.1439 162.701 40.0919 162.896 39.9878C163.09 39.879 163.21 39.7111 163.255 39.484C163.3 39.257 163.322 38.9637 163.322 38.6042ZM160.696 45.1252V39.2215H162.088V46.8991H160.763L160.696 45.1252ZM160.958 43.5073L161.534 43.4932C161.534 44.0041 161.477 44.4771 161.362 44.9123C161.252 45.3428 161.072 45.7165 160.823 46.0335C160.574 46.3504 160.247 46.5988 159.843 46.7785C159.439 46.9535 158.947 47.0411 158.369 47.0411C157.975 47.0411 157.613 46.9867 157.284 46.8779C156.96 46.769 156.68 46.6011 156.446 46.3741C156.211 46.147 156.029 45.8513 155.9 45.4871C155.775 45.1228 155.713 44.6853 155.713 44.1744V39.2215H157.097V44.1885C157.097 44.5339 157.137 44.8201 157.217 45.0471C157.301 45.2695 157.414 45.4469 157.553 45.5793C157.698 45.707 157.858 45.7969 158.032 45.849C158.212 45.901 158.396 45.927 158.586 45.927C159.174 45.927 159.641 45.8206 159.985 45.6077C160.329 45.3901 160.576 45.0992 160.726 44.7349C160.88 44.3659 160.958 43.9567 160.958 43.5073ZM158.04 48.6447C158.04 48.4318 158.107 48.2521 158.242 48.1054C158.381 47.9588 158.586 47.8855 158.855 47.8855C159.12 47.8855 159.322 47.9588 159.461 48.1054C159.606 48.2521 159.678 48.4318 159.678 48.6447C159.678 48.8481 159.606 49.0208 159.461 49.1627C159.322 49.3093 159.12 49.3827 158.855 49.3827C158.586 49.3827 158.381 49.3093 158.242 49.1627C158.107 49.0208 158.04 48.8481 158.04 48.6447Z" fill="black"/>
<path d="M166.614 40.8606V46.8991H165.23V39.2215H166.54L166.614 40.8606ZM166.285 42.7694L165.709 42.7481C165.714 42.223 165.796 41.7381 165.956 41.2935C166.116 40.8441 166.34 40.4538 166.629 40.1227C166.919 39.7915 167.263 39.5361 167.662 39.3563C168.066 39.1718 168.512 39.0796 169.001 39.0796C169.4 39.0796 169.759 39.1316 170.079 39.2357C170.398 39.335 170.67 39.4959 170.894 39.7182C171.124 39.9405 171.298 40.2291 171.418 40.5839C171.538 40.9339 171.598 41.3621 171.598 41.8682V46.8991H170.206V41.854C170.206 41.4519 170.144 41.1303 170.019 40.889C169.894 40.643 169.712 40.4656 169.473 40.3568C169.233 40.2433 168.939 40.1865 168.59 40.1865C168.246 40.1865 167.931 40.2551 167.647 40.3923C167.368 40.5295 167.126 40.7187 166.921 40.96C166.722 41.2012 166.564 41.478 166.45 41.7902C166.34 42.0977 166.285 42.4241 166.285 42.7694Z" fill="black"/>
<path d="M178.945 39.2215H180.202V46.7359C180.202 47.4124 180.058 47.9895 179.768 48.4673C179.479 48.9451 179.075 49.307 178.556 49.553C178.042 49.8037 177.449 49.929 176.775 49.929C176.496 49.929 176.167 49.8865 175.788 49.8013C175.414 49.7209 175.044 49.5813 174.68 49.3827C174.321 49.1887 174.019 48.9262 173.775 48.595L174.501 47.8145C174.84 48.2024 175.194 48.472 175.563 48.6234C175.937 48.7748 176.306 48.8505 176.671 48.8505C177.11 48.8505 177.489 48.7724 177.808 48.6163C178.127 48.4602 178.374 48.2284 178.549 47.9209C178.728 47.6182 178.818 47.2445 178.818 46.7998V40.9103L178.945 39.2215ZM173.371 43.1455V42.9965C173.371 42.4099 173.443 41.8777 173.588 41.3999C173.738 40.9174 173.95 40.5035 174.224 40.1581C174.503 39.8128 174.84 39.5479 175.234 39.3634C175.628 39.1742 176.072 39.0796 176.566 39.0796C177.075 39.0796 177.519 39.1647 177.898 39.335C178.282 39.5006 178.606 39.7442 178.87 40.0659C179.14 40.3828 179.352 40.766 179.506 41.2154C179.661 41.6648 179.768 42.1733 179.828 42.741V43.3938C179.773 43.9567 179.666 44.4629 179.506 44.9123C179.352 45.3617 179.14 45.7449 178.87 46.0618C178.606 46.3788 178.282 46.6224 177.898 46.7927C177.514 46.9583 177.065 47.0411 176.551 47.0411C176.067 47.0411 175.628 46.9441 175.234 46.7501C174.845 46.5562 174.511 46.2842 174.231 45.9341C173.952 45.5841 173.738 45.1725 173.588 44.6994C173.443 44.2217 173.371 43.7037 173.371 43.1455ZM174.755 42.9965V43.1455C174.755 43.5286 174.795 43.8882 174.875 44.224C174.96 44.5599 175.087 44.8555 175.256 45.111C175.431 45.3664 175.653 45.5675 175.922 45.7141C176.192 45.8561 176.514 45.927 176.888 45.927C177.347 45.927 177.726 45.8348 178.025 45.6503C178.324 45.4658 178.561 45.2222 178.736 44.9194C178.915 44.6167 179.055 44.2879 179.155 43.9331V42.223C179.1 41.9628 179.015 41.7121 178.9 41.4709C178.791 41.2249 178.646 41.0073 178.466 40.818C178.292 40.6241 178.075 40.4703 177.815 40.3568C177.556 40.2433 177.252 40.1865 176.903 40.1865C176.523 40.1865 176.197 40.2622 175.922 40.4136C175.653 40.5602 175.431 40.7636 175.256 41.0238C175.087 41.2793 174.96 41.5773 174.875 41.9179C174.795 42.2538 174.755 42.6133 174.755 42.9965Z" fill="black"/>
<path d="M192.892 43.6138H194.329C194.254 44.2666 194.057 44.8508 193.738 45.3664C193.419 45.8821 192.967 46.2913 192.384 46.594C191.8 46.892 191.072 47.0411 190.199 47.0411C189.56 47.0411 188.979 46.9275 188.455 46.7005C187.937 46.4734 187.49 46.1517 187.116 45.7354C186.742 45.3144 186.453 44.8106 186.248 44.224C186.048 43.6327 185.949 42.9752 185.949 42.2514V41.2225C185.949 40.4987 186.048 39.8436 186.248 39.257C186.453 38.6657 186.744 38.1595 187.123 37.7385C187.508 37.3175 187.969 36.9934 188.508 36.7663C189.046 36.5393 189.652 36.4257 190.326 36.4257C191.149 36.4257 191.845 36.5724 192.413 36.8657C192.982 37.159 193.424 37.5658 193.738 38.0862C194.057 38.6018 194.254 39.2002 194.329 39.8814H192.892C192.822 39.3989 192.693 38.985 192.503 38.6396C192.314 38.2896 192.044 38.0199 191.695 37.8307C191.346 37.6415 190.89 37.5469 190.326 37.5469C189.842 37.5469 189.416 37.6344 189.046 37.8094C188.682 37.9845 188.375 38.2328 188.126 38.5545C187.882 38.8762 187.697 39.2617 187.572 39.7111C187.448 40.1605 187.385 40.6596 187.385 41.2083V42.2514C187.385 42.7576 187.44 43.233 187.55 43.6776C187.665 44.1223 187.837 44.5126 188.066 44.8485C188.296 45.1843 188.588 45.4492 188.942 45.6432C189.296 45.8324 189.715 45.927 190.199 45.927C190.812 45.927 191.301 45.8348 191.665 45.6503C192.029 45.4658 192.304 45.2009 192.488 44.8555C192.678 44.5102 192.813 44.0963 192.892 43.6138Z" fill="black"/>
<path d="M199.813 45.331L203.023 36.5677H204.587L200.554 46.8991H199.439L199.813 45.331ZM196.813 36.5677L199.993 45.331L200.39 46.8991H199.275L195.249 36.5677H196.813Z" fill="black"/>
<path d="M214 41.7547V45.5367C213.865 45.726 213.651 45.9388 213.357 46.1754C213.062 46.4072 212.656 46.6106 212.137 46.7856C211.623 46.9559 210.96 47.0411 210.147 47.0411C209.483 47.0411 208.872 46.9323 208.313 46.7146C207.76 46.4923 207.278 46.1706 206.869 45.7496C206.465 45.3239 206.151 44.8082 205.927 44.2027C205.707 43.5925 205.597 42.9018 205.597 42.1308V41.3289C205.597 40.5579 205.692 39.8696 205.882 39.2641C206.076 38.6586 206.361 38.1453 206.735 37.7243C207.109 37.2985 207.568 36.9769 208.111 36.7592C208.655 36.5369 209.279 36.4257 209.982 36.4257C210.815 36.4257 211.511 36.5629 212.07 36.8373C212.633 37.1069 213.072 37.4807 213.386 37.9584C213.706 38.4362 213.91 38.9802 214 39.5905H212.556C212.491 39.2168 212.361 38.8762 212.167 38.5687C211.977 38.2612 211.705 38.0152 211.351 37.8307C210.997 37.6415 210.541 37.5469 209.982 37.5469C209.478 37.5469 209.042 37.6344 208.673 37.8094C208.303 37.9845 207.999 38.2352 207.76 38.5616C207.52 38.888 207.341 39.283 207.221 39.7466C207.106 40.2102 207.049 40.7329 207.049 41.3147V42.1308C207.049 42.7268 207.121 43.259 207.266 43.7273C207.416 44.1956 207.628 44.5954 207.902 44.9265C208.176 45.2529 208.503 45.5013 208.882 45.6716C209.266 45.8419 209.69 45.927 210.154 45.927C210.668 45.927 211.084 45.8868 211.404 45.8064C211.723 45.7212 211.972 45.6219 212.152 45.5084C212.331 45.3901 212.469 45.2789 212.563 45.1749V42.8616H210.042V41.7547H214Z" fill="black"/>
<path d="M32.8601 12.1999C33.6178 13.0853 34.4084 13.9737 35.1272 14.8771C34.663 13.8622 34.073 12.8835 33.6238 11.9077C32.7313 9.96527 31.8448 7.00491 33.3482 5.10461C31.9496 6.08638 31.4644 7.46869 31.5034 8.97146C31.5243 9.75447 31.8927 10.6188 32.2371 11.459C32.4408 11.706 32.6474 11.9529 32.8601 12.1999Z" fill="#EE8022"/>
<path d="M33.3843 17.2834C33.3184 17.1479 33.2496 17.0124 33.1777 16.8769C32.3271 15.2868 31.1621 13.8111 30.2636 12.3113C28.7392 9.76958 27.0711 5.82142 28.856 2.96646C27.0741 4.53247 26.6158 6.51408 26.8944 8.58001C27.116 10.2334 28.4966 12.0102 29.1376 13.6364C29.3861 13.9045 29.6347 14.1755 29.8803 14.4435C30.9375 15.603 31.9618 16.7835 32.8542 18.0363C32.9051 18.1086 32.9561 18.1839 33.007 18.2562C33.0938 18.3796 33.1807 18.5031 33.2645 18.6296C33.6389 19.1928 33.9773 19.768 34.2888 20.3552C34.2888 20.3492 34.2888 20.3462 34.2888 20.3402C34.2019 19.256 33.8575 18.2471 33.3843 17.2834Z" fill="#EE8022"/>
<path d="M13.965 24.7822C15.726 25.4206 18.7659 28.5376 19.9249 29.6609C21.7847 31.4679 24.5101 37.3254 23.3151 43.1166C21.9375 49.8023 18.1399 52.3049 15.741 52.5036C12.803 52.7476 10.2274 50.8202 9.42473 49.1457C8.15489 46.4986 7.88535 44.514 10.4071 40.8489C18.1369 29.6188 9.42473 21.0599 9.42473 21.0599C9.42473 21.0599 15.9087 30.0404 11.1169 38.024C10.1106 39.7015 8.59514 41.409 7.90332 43.475C7.13363 45.1313 7.01084 47.2725 7.5649 48.9741C8.18185 50.8683 9.30494 52.5127 10.9911 53.7173C11.4163 53.9492 15.5343 56.0482 19.6523 53.2083C22.4226 50.9617 25.747 46.9774 26.1842 40.608C26.8401 31.1035 18.5472 26.1013 13.965 24.7822Z" fill="#EE8022"/>
<path d="M30.8596 23.6438C30.7668 23.2282 30.662 22.8216 30.5392 22.4181C30.4463 22.1109 30.3415 21.8037 30.2307 21.5026C30.1798 21.358 30.1229 21.2165 30.066 21.0749C28.9818 18.3254 27.1759 15.7535 24.5494 12.9136C21.7431 9.87491 19.5389 4.13488 21.7851 0C19.7605 2.19543 19.3233 5.11363 19.8893 7.97161C19.9192 8.1252 19.9582 8.27879 20.0061 8.43238C20.0061 8.43539 20.0091 8.4384 20.0091 8.44141C20.8027 11.1518 24.1271 16.5877 25.6275 19.3764C27.4125 22.6921 27.0681 24.8002 26.3942 26.6343C26.7207 26.821 27.0381 27.0227 27.3526 27.2396C27.7988 27.5498 28.2331 27.8901 28.6434 28.2695C29.461 29.0285 30.1588 29.8084 30.7548 30.6035C31.1591 29.0405 31.4646 27.095 31.0693 24.6858C31.0094 24.3364 30.9375 23.9901 30.8596 23.6438Z" fill="#EE8022"/>
<path d="M1.92437 50.6364C2.05615 50.8231 2.19092 51.0038 2.33467 51.1845C2.61919 51.5429 2.93066 51.8832 3.26609 52.2084C3.4338 52.3711 3.60751 52.5277 3.7872 52.6813C3.99685 52.8589 4.21548 53.0276 4.44009 53.1902C4.45806 53.2053 4.47903 53.2173 4.497 53.2324C4.71562 53.389 4.94024 53.5396 5.16786 53.6841L5.15887 53.6811C5.15887 53.6811 5.18882 53.6992 5.24872 53.7323C5.28166 53.7534 5.3176 53.7684 5.35055 53.7895C6.46765 54.4611 7.70754 54.9761 9.01631 55.3224H9.01931C9.27987 55.3917 9.54342 55.4519 9.80697 55.5061C9.82793 55.5091 9.8459 55.5151 9.86687 55.5182C10.1184 55.5693 10.376 55.6145 10.6306 55.6537C10.6515 55.6567 10.6695 55.6597 10.6905 55.6627C10.96 55.7019 11.2325 55.738 11.5081 55.7651C16.9977 56.6053 25.3056 55.6326 33.3769 46.0227H33.3739C35.6381 43.6737 37.5548 40.8277 38.7348 36.991C39.4985 34.8197 39.9387 32.5279 39.9387 30.1819C39.9387 30.0825 39.9358 29.9771 39.9358 29.8777C39.9747 29.17 39.9957 28.4412 39.9957 27.6853C39.9957 23.9419 39.2859 19.1535 37.7734 15.7354C36.9918 13.9676 35.4973 12.2269 34.521 10.5254C33.5476 8.82388 33.1134 6.57123 33.338 5.10761C31.8345 7.00791 32.721 9.97128 33.6135 11.9107C34.0627 12.8865 34.6527 13.8652 35.1169 14.8801C34.3982 13.9767 33.6075 13.0882 32.8498 12.2029C32.6372 11.9559 32.4305 11.709 32.2269 11.462C31.8974 11.0645 31.583 10.6639 31.2924 10.2664C29.6902 8.06798 28.7528 5.0263 28.8426 2.97241C27.0576 5.82436 28.7288 9.77553 30.2502 12.3173C31.1487 13.817 32.3167 15.2927 33.1643 16.8828C33.2361 17.0183 33.305 17.1508 33.3709 17.2894C33.8441 18.2531 34.1855 19.262 34.2694 20.3521C34.2694 20.3582 34.2694 20.3612 34.2694 20.3672C33.9579 19.7799 33.6195 19.2017 33.2451 18.6416C33.1613 18.5151 33.0744 18.3916 32.9876 18.2681C32.9367 18.1959 32.8887 18.1206 32.8348 18.0483C31.9423 16.7955 30.9211 15.615 29.8609 14.4555C29.6153 14.1845 29.3667 13.9164 29.1181 13.6484C27.9921 12.4347 26.854 11.2301 25.8088 9.97128C23.4009 7.03501 21.4392 3.57774 21.7806 0C19.5344 4.13487 21.7417 9.87491 24.5479 12.9136C27.1744 15.7535 28.9804 18.3254 30.0645 21.0749C30.1214 21.2165 30.1753 21.361 30.2293 21.5026C30.3401 21.8067 30.4419 22.1109 30.5377 22.4181C30.6605 22.8216 30.7653 23.2312 30.8582 23.6438C30.9361 23.9871 31.0079 24.3334 31.0648 24.6888C31.4602 27.098 31.1547 29.0435 30.7504 30.6065C30.1544 29.8084 29.4566 29.0284 28.639 28.2725C28.2287 27.8931 27.7944 27.5528 27.3482 27.2426C27.0367 27.0258 26.7162 26.821 26.3898 26.6373C20.8612 23.4962 13.6285 24.6918 13.6285 24.6918C13.7333 24.7099 13.8471 24.743 13.9669 24.7852C18.5491 26.1042 26.842 31.1064 26.1891 40.6139C25.7519 46.9834 22.4275 50.9677 19.6572 53.2143C15.5392 56.0542 11.4242 53.9551 10.9959 53.7233C9.30982 52.5186 8.18672 50.8743 7.56977 48.98C7.01572 47.2815 7.13851 45.1373 7.9082 43.4809C8.59703 41.415 10.1125 39.7074 11.1217 38.03C15.9136 30.0464 9.42961 21.0659 9.42961 21.0659C9.45058 21.3731 9.47154 21.6832 9.48951 21.9995C9.51646 22.6048 9.51646 23.2011 9.48053 23.7883C9.45357 24.231 9.41164 24.6707 9.34875 25.1044C9.2619 25.7097 9.13611 26.309 8.97139 26.9023C8.89951 27.1583 8.82464 27.4143 8.73779 27.6702C8.63596 27.9684 8.52215 28.2665 8.39936 28.5647C8.30353 28.7966 8.2017 29.0284 8.09089 29.2603C7.74947 29.9861 7.34216 30.7089 6.85998 31.4317C6.49161 31.9828 6.09927 32.5249 5.69197 33.0609C5.28466 33.597 4.86537 34.127 4.44908 34.6601C4.17055 35.0154 3.89502 35.3678 3.62248 35.7262C3.34995 36.0845 3.0834 36.4429 2.82584 36.8043C2.56828 37.1687 2.3197 37.5361 2.0831 37.9065C1.8465 38.28 1.62488 38.6594 1.42122 39.0449C1.3194 39.2376 1.22057 39.4334 1.12772 39.6291C1.03488 39.8279 0.948029 40.0267 0.864172 40.2284C0.786304 40.4182 0.714426 40.6079 0.645543 40.8006C0.576661 40.9934 0.513767 41.1861 0.456864 41.3819C0.340063 41.7734 0.244226 42.1709 0.172348 42.5745C0.0255973 43.3846 -0.031306 44.2278 0.0166126 45.1162C0.121434 47.0858 0.777319 48.9981 1.92437 50.6364Z" fill="#FFDE17"/>
</svg>
